<?xml version="1.0" standalone="no"?>
<svg xmlns:xlink="http://www.w3.org/1999/xlink" id="wave" style="transform:rotate(180deg); transition: 0.3s" viewBox="0 0 1440 120" version="1.1" xmlns="http://www.w3.org/2000/svg"><defs><linearGradient id="sw-gradient-0" x1="0" x2="0" y1="1" y2="0"><stop stop-color="rgba(239, 243, 245, 1)" offset="0%"/><stop stop-color="rgba(239, 243, 245, 1)" offset="100%"/></linearGradient></defs><path style="transform:translate(0, 0px); opacity:1" fill="url(#sw-gradient-0)" d="M0,84L17.1,80C34.3,76,69,68,103,64C137.1,60,171,60,206,52C240,44,274,28,309,32C342.9,36,377,60,411,76C445.7,92,480,100,514,102C548.6,104,583,100,617,82C651.4,64,686,32,720,20C754.3,8,789,16,823,32C857.1,48,891,72,926,86C960,100,994,104,1029,100C1062.9,96,1097,84,1131,76C1165.7,68,1200,64,1234,52C1268.6,40,1303,20,1337,20C1371.4,20,1406,40,1440,52C1474.3,64,1509,68,1543,66C1577.1,64,1611,56,1646,50C1680,44,1714,40,1749,36C1782.9,32,1817,28,1851,26C1885.7,24,1920,24,1954,20C1988.6,16,2023,8,2057,20C2091.4,32,2126,64,2160,68C2194.3,72,2229,48,2263,38C2297.1,28,2331,32,2366,34C2400,36,2434,36,2451,36L2468.6,36L2468.6,120L2451.4,120C2434.3,120,2400,120,2366,120C2331.4,120,2297,120,2263,120C2228.6,120,2194,120,2160,120C2125.7,120,2091,120,2057,120C2022.9,120,1989,120,1954,120C1920,120,1886,120,1851,120C1817.1,120,1783,120,1749,120C1714.3,120,1680,120,1646,120C1611.4,120,1577,120,1543,120C1508.6,120,1474,120,1440,120C1405.7,120,1371,120,1337,120C1302.9,120,1269,120,1234,120C1200,120,1166,120,1131,120C1097.1,120,1063,120,1029,120C994.3,120,960,120,926,120C891.4,120,857,120,823,120C788.6,120,754,120,720,120C685.7,120,651,120,617,120C582.9,120,549,120,514,120C480,120,446,120,411,120C377.1,120,343,120,309,120C274.3,120,240,120,206,120C171.4,120,137,120,103,120C68.6,120,34,120,17,120L0,120Z"/></svg>