<?xml version="1.0" standalone="no"?>
<svg xmlns:xlink="http://www.w3.org/1999/xlink" id="wave" style="transform:rotate(180deg); transition: 0.3s" viewBox="0 0 1440 100" version="1.1" xmlns="http://www.w3.org/2000/svg"><defs><linearGradient id="sw-gradient-0" x1="0" x2="0" y1="1" y2="0"><stop stop-color="rgba(250, 250, 250, 1)" offset="0%"/><stop stop-color="rgba(250, 250, 250, 1)" offset="100%"/></linearGradient></defs><path style="transform:translate(0, 0px); opacity:1" fill="url(#sw-gradient-0)" d="M0,10L17.1,11.7C34.3,13,69,17,103,16.7C137.1,17,171,13,206,16.7C240,20,274,30,309,41.7C342.9,53,377,67,411,65C445.7,63,480,47,514,43.3C548.6,40,583,50,617,56.7C651.4,63,686,67,720,61.7C754.3,57,789,43,823,36.7C857.1,30,891,30,926,31.7C960,33,994,37,1029,41.7C1062.9,47,1097,53,1131,61.7C1165.7,70,1200,80,1234,73.3C1268.6,67,1303,43,1337,35C1371.4,27,1406,33,1440,35C1474.3,37,1509,33,1543,38.3C1577.1,43,1611,57,1646,65C1680,73,1714,77,1749,80C1782.9,83,1817,87,1851,80C1885.7,73,1920,57,1954,56.7C1988.6,57,2023,73,2057,80C2091.4,87,2126,83,2160,76.7C2194.3,70,2229,60,2263,51.7C2297.1,43,2331,37,2366,43.3C2400,50,2434,70,2451,80L2468.6,90L2468.6,100L2451.4,100C2434.3,100,2400,100,2366,100C2331.4,100,2297,100,2263,100C2228.6,100,2194,100,2160,100C2125.7,100,2091,100,2057,100C2022.9,100,1989,100,1954,100C1920,100,1886,100,1851,100C1817.1,100,1783,100,1749,100C1714.3,100,1680,100,1646,100C1611.4,100,1577,100,1543,100C1508.6,100,1474,100,1440,100C1405.7,100,1371,100,1337,100C1302.9,100,1269,100,1234,100C1200,100,1166,100,1131,100C1097.1,100,1063,100,1029,100C994.3,100,960,100,926,100C891.4,100,857,100,823,100C788.6,100,754,100,720,100C685.7,100,651,100,617,100C582.9,100,549,100,514,100C480,100,446,100,411,100C377.1,100,343,100,309,100C274.3,100,240,100,206,100C171.4,100,137,100,103,100C68.6,100,34,100,17,100L0,100Z"/></svg>