<?xml version="1.0" standalone="no"?>
<svg xmlns:xlink="http://www.w3.org/1999/xlink" id="wave" style="transform:rotate(180deg); transition: 0.3s" viewBox="0 0 1440 100" version="1.1" xmlns="http://www.w3.org/2000/svg"><defs><linearGradient id="sw-gradient-0" x1="0" x2="0" y1="1" y2="0"><stop stop-color="rgba(239, 243, 245, 1)" offset="0%"/><stop stop-color="rgba(239, 243, 245, 1)" offset="100%"/></linearGradient></defs><path style="transform:translate(0, 0px); opacity:1" fill="url(#sw-gradient-0)" d="M0,20L60,80L120,80L180,70L240,0L300,10L360,50L420,80L480,80L540,70L600,40L660,0L720,80L780,30L840,50L900,30L960,20L1020,90L1080,40L1140,90L1200,50L1260,30L1320,10L1380,30L1440,40L1440,100L1380,100L1320,100L1260,100L1200,100L1140,100L1080,100L1020,100L960,100L900,100L840,100L780,100L720,100L660,100L600,100L540,100L480,100L420,100L360,100L300,100L240,100L180,100L120,100L60,100L0,100Z"/></svg>