<?xml version="1.0" standalone="no"?>
<svg xmlns:xlink="http://www.w3.org/1999/xlink" id="wave" style="transform:rotate(0deg); transition: 0.3s" viewBox="0 0 1440 100" version="1.1" xmlns="http://www.w3.org/2000/svg"><defs><linearGradient id="sw-gradient-0" x1="0" x2="0" y1="1" y2="0"><stop stop-color="rgba(239, 243, 245, 1)" offset="0%"/><stop stop-color="rgba(239, 243, 245, 1)" offset="100%"/></linearGradient></defs><path style="transform:translate(0, 0px); opacity:1" fill="url(#sw-gradient-0)" d="M0,20L48,30C96,40,192,60,288,70C384,80,480,80,576,78.3C672,77,768,73,864,60C960,47,1056,23,1152,13.3C1248,3,1344,7,1440,15C1536,23,1632,37,1728,48.3C1824,60,1920,70,2016,75C2112,80,2208,80,2304,78.3C2400,77,2496,73,2592,66.7C2688,60,2784,50,2880,38.3C2976,27,3072,13,3168,20C3264,27,3360,53,3456,58.3C3552,63,3648,47,3744,41.7C3840,37,3936,43,4032,43.3C4128,43,4224,37,4320,31.7C4416,27,4512,23,4608,33.3C4704,43,4800,67,4896,70C4992,73,5088,57,5184,56.7C5280,57,5376,73,5472,75C5568,77,5664,63,5760,53.3C5856,43,5952,37,6048,30C6144,23,6240,17,6336,16.7C6432,17,6528,23,6624,28.3C6720,33,6816,37,6864,38.3L6912,40L6912,100L6864,100C6816,100,6720,100,6624,100C6528,100,6432,100,6336,100C6240,100,6144,100,6048,100C5952,100,5856,100,5760,100C5664,100,5568,100,5472,100C5376,100,5280,100,5184,100C5088,100,4992,100,4896,100C4800,100,4704,100,4608,100C4512,100,4416,100,4320,100C4224,100,4128,100,4032,100C3936,100,3840,100,3744,100C3648,100,3552,100,3456,100C3360,100,3264,100,3168,100C3072,100,2976,100,2880,100C2784,100,2688,100,2592,100C2496,100,2400,100,2304,100C2208,100,2112,100,2016,100C1920,100,1824,100,1728,100C1632,100,1536,100,1440,100C1344,100,1248,100,1152,100C1056,100,960,100,864,100C768,100,672,100,576,100C480,100,384,100,288,100C192,100,96,100,48,100L0,100Z"/></svg>