<?xml version="1.0" standalone="no"?>
<svg xmlns:xlink="http://www.w3.org/1999/xlink" id="wave" style="transform:rotate(180deg); transition: 0.3s" viewBox="0 0 1440 100" version="1.1" xmlns="http://www.w3.org/2000/svg"><defs><linearGradient id="sw-gradient-0" x1="0" x2="0" y1="1" y2="0"><stop stop-color="rgba(239, 243, 245, 1)" offset="0%"/><stop stop-color="rgba(239, 243, 245, 1)" offset="100%"/></linearGradient></defs><path style="transform:translate(0, 0px); opacity:1" fill="url(#sw-gradient-0)" d="M0,20L34.3,30C68.6,40,137,60,206,70C274.3,80,343,80,411,78.3C480,77,549,73,617,60C685.7,47,754,23,823,13.3C891.4,3,960,7,1029,15C1097.1,23,1166,37,1234,48.3C1302.9,60,1371,70,1440,75C1508.6,80,1577,80,1646,78.3C1714.3,77,1783,73,1851,66.7C1920,60,1989,50,2057,38.3C2125.7,27,2194,13,2263,20C2331.4,27,2400,53,2469,58.3C2537.1,63,2606,47,2674,41.7C2742.9,37,2811,43,2880,43.3C2948.6,43,3017,37,3086,31.7C3154.3,27,3223,23,3291,33.3C3360,43,3429,67,3497,70C3565.7,73,3634,57,3703,56.7C3771.4,57,3840,73,3909,75C3977.1,77,4046,63,4114,53.3C4182.9,43,4251,37,4320,30C4388.6,23,4457,17,4526,16.7C4594.3,17,4663,23,4731,28.3C4800,33,4869,37,4903,38.3L4937.1,40L4937.1,100L4902.9,100C4868.6,100,4800,100,4731,100C4662.9,100,4594,100,4526,100C4457.1,100,4389,100,4320,100C4251.4,100,4183,100,4114,100C4045.7,100,3977,100,3909,100C3840,100,3771,100,3703,100C3634.3,100,3566,100,3497,100C3428.6,100,3360,100,3291,100C3222.9,100,3154,100,3086,100C3017.1,100,2949,100,2880,100C2811.4,100,2743,100,2674,100C2605.7,100,2537,100,2469,100C2400,100,2331,100,2263,100C2194.3,100,2126,100,2057,100C1988.6,100,1920,100,1851,100C1782.9,100,1714,100,1646,100C1577.1,100,1509,100,1440,100C1371.4,100,1303,100,1234,100C1165.7,100,1097,100,1029,100C960,100,891,100,823,100C754.3,100,686,100,617,100C548.6,100,480,100,411,100C342.9,100,274,100,206,100C137.1,100,69,100,34,100L0,100Z"/></svg>