<?xml version="1.0" standalone="no"?>
<svg xmlns:xlink="http://www.w3.org/1999/xlink" id="wave" style="transform:rotate(180deg); transition: 0.3s" viewBox="0 0 1440 100" version="1.1" xmlns="http://www.w3.org/2000/svg"><defs><linearGradient id="sw-gradient-0" x1="0" x2="0" y1="1" y2="0"><stop stop-color="rgba(239, 243, 245, 1)" offset="0%"/><stop stop-color="rgba(239, 243, 245, 1)" offset="100%"/></linearGradient></defs><path style="transform:translate(0, 0px); opacity:1" fill="url(#sw-gradient-0)" d="M0,20L240,30C480,40,960,60,1440,70C1920,80,2400,80,2880,78.3C3360,77,3840,73,4320,60C4800,47,5280,23,5760,13.3C6240,3,6720,7,7200,15C7680,23,8160,37,8640,48.3C9120,60,9600,70,10080,75C10560,80,11040,80,11520,78.3C12000,77,12480,73,12960,66.7C13440,60,13920,50,14400,38.3C14880,27,15360,13,15840,20C16320,27,16800,53,17280,58.3C17760,63,18240,47,18720,41.7C19200,37,19680,43,20160,43.3C20640,43,21120,37,21600,31.7C22080,27,22560,23,23040,33.3C23520,43,24000,67,24480,70C24960,73,25440,57,25920,56.7C26400,57,26880,73,27360,75C27840,77,28320,63,28800,53.3C29280,43,29760,37,30240,30C30720,23,31200,17,31680,16.7C32160,17,32640,23,33120,28.3C33600,33,34080,37,34320,38.3L34560,40L34560,100L34320,100C34080,100,33600,100,33120,100C32640,100,32160,100,31680,100C31200,100,30720,100,30240,100C29760,100,29280,100,28800,100C28320,100,27840,100,27360,100C26880,100,26400,100,25920,100C25440,100,24960,100,24480,100C24000,100,23520,100,23040,100C22560,100,22080,100,21600,100C21120,100,20640,100,20160,100C19680,100,19200,100,18720,100C18240,100,17760,100,17280,100C16800,100,16320,100,15840,100C15360,100,14880,100,14400,100C13920,100,13440,100,12960,100C12480,100,12000,100,11520,100C11040,100,10560,100,10080,100C9600,100,9120,100,8640,100C8160,100,7680,100,7200,100C6720,100,6240,100,5760,100C5280,100,4800,100,4320,100C3840,100,3360,100,2880,100C2400,100,1920,100,1440,100C960,100,480,100,240,100L0,100Z"/></svg>