<?xml version="1.0" standalone="no"?>
<svg xmlns:xlink="http://www.w3.org/1999/xlink" id="wave" style="transform:rotate(180deg); transition: 0.3s" viewBox="0 0 1440 490" version="1.1" xmlns="http://www.w3.org/2000/svg"><defs><linearGradient id="sw-gradient-0" x1="0" x2="0" y1="1" y2="0"><stop stop-color="rgba(239, 243, 245, 1)" offset="0%"/><stop stop-color="rgba(239, 243, 245, 1)" offset="100%"/></linearGradient></defs><path style="transform:translate(0, 0px); opacity:1" fill="url(#sw-gradient-0)" d="M0,49L240,98C480,147,960,245,1440,269.5C1920,294,2400,245,2880,236.8C3360,229,3840,261,4320,245C4800,229,5280,163,5760,114.3C6240,65,6720,33,7200,40.8C7680,49,8160,98,8640,130.7C9120,163,9600,180,10080,179.7C10560,180,11040,163,11520,196C12000,229,12480,310,12960,318.5C13440,327,13920,261,14400,204.2C14880,147,15360,98,15840,114.3C16320,131,16800,212,17280,220.5C17760,229,18240,163,18720,179.7C19200,196,19680,294,20160,343C20640,392,21120,392,21600,375.7C22080,359,22560,327,23040,310.3C23520,294,24000,294,24480,245C24960,196,25440,98,25920,98C26400,98,26880,196,27360,245C27840,294,28320,294,28800,269.5C29280,245,29760,196,30240,196C30720,196,31200,245,31680,285.8C32160,327,32640,359,33120,310.3C33600,261,34080,131,34320,65.3L34560,0L34560,490L34320,490C34080,490,33600,490,33120,490C32640,490,32160,490,31680,490C31200,490,30720,490,30240,490C29760,490,29280,490,28800,490C28320,490,27840,490,27360,490C26880,490,26400,490,25920,490C25440,490,24960,490,24480,490C24000,490,23520,490,23040,490C22560,490,22080,490,21600,490C21120,490,20640,490,20160,490C19680,490,19200,490,18720,490C18240,490,17760,490,17280,490C16800,490,16320,490,15840,490C15360,490,14880,490,14400,490C13920,490,13440,490,12960,490C12480,490,12000,490,11520,490C11040,490,10560,490,10080,490C9600,490,9120,490,8640,490C8160,490,7680,490,7200,490C6720,490,6240,490,5760,490C5280,490,4800,490,4320,490C3840,490,3360,490,2880,490C2400,490,1920,490,1440,490C960,490,480,490,240,490L0,490Z"/></svg>